<svg width="13" height="11" viewBox="0 0 13 11" fill="none" xmlns="http://www.w3.org/2000/svg">
<path d="M11.504 0.25H1.49603C1.22966 0.252377 0.97513 0.360409 0.78837 0.550356C0.60161 0.740304 0.497901 0.996627 0.500032 1.263V6.843C0.499152 7.0302 0.550058 7.21399 0.647124 7.37406C0.744189 7.53413 0.883631 7.66424 1.05003 7.75L5.83003 10.59C6.03737 10.6957 6.2668 10.7508 6.49953 10.7508C6.73227 10.7508 6.96169 10.6957 7.16903 10.59L11.949 7.75C12.1155 7.66445 12.255 7.53456 12.3523 7.37467C12.4495 7.21479 12.5006 7.03113 12.5 6.844V1.264C12.5012 1.13202 12.4764 1.0011 12.427 0.878712C12.3776 0.756325 12.3045 0.64487 12.2121 0.55071C12.1196 0.45655 12.0094 0.381531 11.888 0.329935C11.7665 0.278339 11.636 0.251177 11.504 0.25ZM9.50003 5.75H7.50003V7.75H5.50003V5.75H3.50003V3.75H5.50003V1.75H7.50003V3.75H9.50003V5.75Z" fill="white"/>
</svg>
