<svg width="54" height="54" viewBox="0 0 54 54" fill="none" xmlns="http://www.w3.org/2000/svg">
<g clip-path="url(#clip0)">
<path d="M8.86865 20.9581H45.1584V50.2667H8.86865V20.9581Z" fill="#FFF5F5"/>
<path d="M8.86865 20.9581H12.2405V50.2667H8.86865V20.9581Z" fill="#EEE1DD"/>
<path d="M30.2251 30.1608V44.3714C30.2251 44.5954 30.4066 44.7769 30.6305 44.7769H39.8919C40.1159 44.7769 40.2974 44.5954 40.2974 44.3714V30.1608H30.2251Z" fill="#80B4FB"/>
<path d="M32.4927 44.3714V30.1608H30.2251V44.3714C30.2251 44.5954 30.4066 44.7769 30.6305 44.7769H32.8981C32.6742 44.7769 32.4927 44.5954 32.4927 44.3714Z" fill="#61A2F9"/>
<path d="M13.7454 30.1608H25.9727V50.2668H13.7454V30.1608Z" fill="#AA8080"/>
<path d="M25.9727 30.3717V27.2895C25.9727 26.8778 25.6358 26.5409 25.2241 26.5409H14.494C14.0822 26.5409 13.7454 26.8778 13.7454 27.2895V30.3717H25.9727Z" fill="#C3A2A2"/>
<path d="M13.7454 30.1608H17.3732V50.2668H13.7454V30.1608Z" fill="#8B5E5E"/>
<path d="M18.1218 26.5408H14.494C14.0822 26.5408 13.7454 26.8777 13.7454 27.2894V30.3716H17.3732V27.2894C17.3732 26.8777 17.7101 26.5408 18.1218 26.5408Z" fill="#AA8080"/>
<path d="M46.2125 49.9503H7.81448C7.36572 49.9503 7.00195 50.3141 7.00195 50.7629V52.3964C7.00195 52.8452 7.36572 53.2091 7.81459 53.2091H46.2126C46.6614 53.2091 47.0252 52.8453 47.0252 52.3964V50.7629C47.025 50.3142 46.6613 49.9503 46.2125 49.9503Z" fill="#CCF49F"/>
<path d="M12.131 52.3963V50.7628C12.131 50.3141 12.4947 49.9503 12.9435 49.9503H7.81435C7.36558 49.9503 7.00171 50.3141 7.00171 50.7628V52.3963C7.00171 52.8451 7.36547 53.209 7.81435 53.209H12.9436C12.4948 53.209 12.131 52.8452 12.131 52.3963Z" fill="#B3E59F"/>
<path d="M36.5957 3.83875H44.4873V7.5464H36.5957V3.83875Z" fill="#EEE1DD"/>
<path d="M36.5957 3.83875H40.2974V7.5464H36.5957V3.83875Z" fill="#CCBEB9"/>
<path d="M37.2825 10.6057L44.4871 16.6654V10.6057H37.2825Z" fill="#EEE1DD"/>
<path d="M40.2973 10.6057H37.2825L40.2973 13.1414V10.6057Z" fill="#CCBEB9"/>
<path d="M44.4873 7.37933H36.5957V10.028L37.4813 10.7728H44.4873V7.37933Z" fill="#CCBEB9"/>
<path d="M40.2974 7.37933H36.5957V10.028L37.4813 10.7728H40.2974V7.37933Z" fill="#B9ACAC"/>
<path d="M46.183 3.23705V1.60355C46.183 1.15478 45.8192 0.790911 45.3703 0.790911H35.7127C35.2639 0.790911 34.9001 1.15478 34.9001 1.60355V3.23705C34.9001 3.68592 35.2639 4.04968 35.7128 4.04968H45.3703C45.8191 4.04968 46.183 3.68592 46.183 3.23705Z" fill="#FFF5F5"/>
<path d="M39.198 3.23705V1.60365C39.198 1.15488 39.5618 0.791016 40.0105 0.791016H35.7127C35.2639 0.791016 34.9001 1.15488 34.9001 1.60365V3.23715C34.9001 3.68603 35.2639 4.04968 35.7128 4.04968H40.0106C39.5618 4.04968 39.198 3.68592 39.198 3.23705Z" fill="#EEE1DD"/>
<path d="M48.5415 19.759L27.6 2.14534C27.261 1.86015 26.766 1.86015 26.4271 2.14534L5.4854 19.759C4.83486 20.3062 5.22172 21.3674 6.0718 21.3674H47.955C48.8052 21.3673 49.1921 20.3062 48.5415 19.759Z" fill="#E27A66"/>
<path d="M10.6147 19.759L29.578 3.80911L27.5999 2.14534C27.2609 1.86015 26.7659 1.86015 26.4269 2.14534L5.48539 19.759C4.83486 20.3062 5.22172 21.3674 6.0719 21.3674H11.2012C10.351 21.3673 9.96412 20.3062 10.6147 19.759Z" fill="#DD544F"/>
<path d="M27.3368 17.4501C29.7279 17.28 31.5284 15.2037 31.3583 12.8126C31.1882 10.4215 29.1119 8.62106 26.7208 8.79117C24.3297 8.96128 22.5293 11.0375 22.6994 13.4286C22.8695 15.8197 24.9457 17.6202 27.3368 17.4501Z" fill="#9DC6FB"/>
<path d="M24.8901 13.1168C24.8901 11.1038 26.2616 9.4114 28.121 8.92182C27.7673 8.82869 27.3964 8.77859 27.0135 8.77859C24.6176 8.77859 22.6753 10.7208 22.6753 13.1167C22.6753 15.5126 24.6176 17.4549 27.0135 17.4549C27.3964 17.4549 27.7673 17.4048 28.121 17.3117C26.2616 16.8223 24.8901 15.1299 24.8901 13.1168Z" fill="#80B4FB"/>
<path d="M39.8919 26.5408H30.6305C30.4066 26.5408 30.2251 26.7223 30.2251 26.9462V30.3716H40.2974V26.9462C40.2974 26.7223 40.1159 26.5408 39.8919 26.5408Z" fill="#9DC6FB"/>
<path d="M32.8981 26.5408H30.6305C30.4066 26.5408 30.2251 26.7223 30.2251 26.9462V30.3716H32.4927V26.9462C32.4927 26.7223 32.6742 26.5408 32.8981 26.5408Z" fill="#80B4FB"/>
<path d="M49.0372 19.1537L45.2646 15.9807C45.2646 14.8667 45.2646 6.14904 45.2646 4.84059H45.3566C46.2409 4.84059 46.9603 4.1213 46.9603 3.23705V1.60365C46.9604 0.719402 46.241 0 45.3567 0H42.3736C41.9367 0 41.5826 0.354164 41.5826 0.791016C41.5826 1.22787 41.9367 1.58203 42.3736 1.58203H45.3567C45.3686 1.58203 45.3783 1.59173 45.3783 1.60365V3.23715C45.3783 3.24897 45.3686 3.25867 45.3567 3.25867H44.4737H36.5821H35.6992C35.6873 3.25867 35.6776 3.24897 35.6776 3.23715V1.60365C35.6776 1.59173 35.6873 1.58203 35.6992 1.58203H38.6822C39.1192 1.58203 39.4733 1.22787 39.4733 0.791016C39.4733 0.354164 39.1192 0 38.6822 0H35.6992C34.8149 0 34.0956 0.719402 34.0956 1.60365V3.23715C34.0956 4.1214 34.8149 4.8407 35.6992 4.8407H35.7911V8.01267L28.0955 1.53995C27.4608 1.00607 26.539 1.00607 25.9044 1.53995L4.96261 19.1537C4.4089 19.6194 4.21136 20.3596 4.45921 21.0393C4.70717 21.7191 5.33481 22.1584 6.05833 22.1584H8.06403V49.1593H7.80088C6.91663 49.1593 6.19733 49.8787 6.19733 50.763V52.3965C6.19733 53.2807 6.91663 54.0001 7.80088 54.0001H46.1989C47.0831 54.0001 47.8024 53.2807 47.8024 52.3965V50.763C47.8024 49.8787 47.0831 49.1593 46.1989 49.1593H45.9357V39.42C45.9357 38.9832 45.5817 38.629 45.1447 38.629C44.7078 38.629 44.3537 38.9832 44.3537 39.42V49.1593H26.7501C26.7501 48.9659 26.7501 27.7811 26.7501 27.2894C26.7501 26.4405 26.0594 25.7498 25.2105 25.7498H14.4804C13.6315 25.7498 12.9408 26.4405 12.9408 27.2894V49.1593H9.64606V22.1584H44.3537V35.7286C44.3537 36.1654 44.7078 36.5196 45.1447 36.5196C45.5817 36.5196 45.9357 36.1654 45.9357 35.7286V22.1584H47.9416C48.6651 22.1584 49.2928 21.7191 49.5407 21.0393C49.7884 20.3596 49.5909 19.6194 49.0372 19.1537ZM37.3732 4.84059H43.6827V6.58821H37.3732V4.84059ZM37.3732 8.17035H43.6827V9.98177H38.1324L37.3732 9.34316V8.17035ZM43.6827 11.5638V14.6501L40.0133 11.5638H43.6827ZM14.5228 27.3318H25.1681V29.5806H14.5228V27.3318ZM14.5228 31.1626H25.1681V49.1593H14.5228V31.1626ZM46.1989 50.7413C46.2107 50.7413 46.2204 50.751 46.2204 50.763V52.3965C46.2204 52.4084 46.2107 52.4181 46.1989 52.4181H7.80088C7.78907 52.4181 7.77937 52.4084 7.77937 52.3965V50.763C7.77937 50.751 7.78907 50.7413 7.80088 50.7413H46.1989ZM48.0543 20.4974C48.0256 20.5764 47.9688 20.5764 47.9416 20.5764C46.2336 20.5764 7.42035 20.5764 6.05833 20.5764C6.03101 20.5764 5.97427 20.5764 5.94558 20.4974C5.91679 20.4184 5.96024 20.3819 5.98102 20.3644L26.9226 2.75062C26.945 2.73175 26.9725 2.72236 26.9999 2.72236C27.0273 2.72236 27.0548 2.73175 27.0772 2.75062L36.0728 10.3168C36.4571 10.64 46.5869 19.1602 48.0187 20.3643C48.0396 20.3819 48.0831 20.4184 48.0543 20.4974Z" fill="black"/>
<path d="M30.6168 25.7498C29.9571 25.7498 29.4204 26.2865 29.4204 26.9462V44.3714C29.4204 45.0311 29.9571 45.5679 30.6168 45.5679H39.8783C40.538 45.5679 41.0747 45.0311 41.0747 44.3714C41.0747 43.6138 41.0747 27.7048 41.0747 26.9462C41.0747 26.2865 40.538 25.7498 39.8783 25.7498H30.6168ZM34.4565 43.9858H31.0024V38.3653H34.4565V43.9858ZM34.4565 36.7833H31.0024V31.1627H34.4565V36.7833ZM39.4926 43.9858H36.0386V38.3653H39.4926V43.9858ZM39.4926 36.7833H36.0386V31.1627H39.4926V36.7833ZM39.4926 29.5807H31.0024V27.3318H39.4926V29.5807Z" fill="black"/>
<path d="M23.397 37.4065C23.2524 37.1752 22.999 37.0347 22.7262 37.0347H21.0469C20.6099 37.0347 20.2559 37.3889 20.2559 37.8257C20.2559 38.2626 20.6099 38.6168 21.0469 38.6168H22.2878L22.5802 39.0846C22.8119 39.4553 23.3002 39.5675 23.6702 39.3362C24.0407 39.1047 24.1533 38.6167 23.9218 38.2461L23.397 37.4065Z" fill="black"/>
<path d="M26.9999 7.98767C24.1716 7.98767 21.8706 10.2886 21.8706 13.1168C21.8706 15.9451 24.1716 18.2461 26.9999 18.2461C29.8281 18.2461 32.1291 15.9452 32.1291 13.1169C32.1291 10.2887 29.8281 7.98767 26.9999 7.98767ZM26.2088 16.574C24.8871 16.2717 23.845 15.2296 23.5427 13.9078H26.2088V16.574ZM26.2088 12.3258H23.5427C23.8451 11.0042 24.8872 9.96205 26.2088 9.65967V12.3258ZM27.7909 16.574V13.9078H30.457C30.1547 15.2296 29.1126 16.2717 27.7909 16.574ZM27.7909 12.3258V9.65967C29.1126 9.96194 30.1547 11.0041 30.457 12.3258H27.7909Z" fill="black"/>
</g>
<defs>
<clipPath id="clip0">
<rect width="54" height="54" fill="white"/>
</clipPath>
</defs>
</svg>
