<svg width="53" height="53" viewBox="0 0 53 53" fill="none" xmlns="http://www.w3.org/2000/svg">
<path d="M49.6875 29.8084V33.1291H46.3667V29.8084H46.375H49.6875Z" fill="#E6E9ED"/>
<path d="M49.6875 33.1291V43.0666H3.3125V33.1291H14.898V38.0979H46.3667V33.1291H49.6875Z" fill="#F7C292"/>
<path d="M12.4136 28.1604V29.8084H3.3125V24.8479H9.10109V24.8396C10.9312 24.8396 12.4136 26.322 12.4136 28.1604Z" fill="#CCD1D9"/>
<path d="M14.898 29.8084V33.1291H3.3125V29.8084H12.4136H14.898Z" fill="#E6E9ED"/>
<path d="M46.3667 33.1291V38.0979H14.8979V33.1291V29.8084V28.9802H17.3906V35.6052H43.8906V28.9802H46.3667V29.8084V33.1291Z" fill="#A0D9F2"/>
<path d="M17.3906 28.9802H43.8906V35.6052H17.3906V28.9802Z" fill="#A0D9F2"/>
<path d="M28.9844 4.97287C33.5639 4.97287 37.2656 8.67459 37.2656 13.2541C37.2656 17.8262 33.5639 21.5354 28.9844 21.5354C24.4131 21.5354 20.7031 17.8262 20.7031 13.2541C20.7031 8.67459 24.4131 4.97287 28.9844 4.97287Z" fill="#A0D9F2"/>
<path d="M52.1719 25.676V48.0271H49.6875V43.0666V33.1291V29.8083V25.676H52.1719Z" fill="#FFD2A6"/>
<path d="M3.3125 24.848V29.8085V33.1292V43.0667V48.0272H0.828125V14.0658H3.3125V24.848Z" fill="#FFD2A6"/>
<path d="M14.8961 33.958H3.31397C2.85601 33.958 2.48584 33.5879 2.48584 33.1299C2.48584 32.672 2.85601 32.3018 3.31397 32.3018H14.8961C15.3541 32.3018 15.7243 32.672 15.7243 33.1299C15.7243 33.5879 15.3541 33.958 14.8961 33.958Z" fill="black"/>
<path d="M49.684 43.8922H3.31396C2.85601 43.8922 2.48584 43.522 2.48584 43.0641C2.48584 42.6061 2.85601 42.2359 3.31396 42.2359H49.684C50.142 42.2359 50.5121 42.6061 50.5121 43.0641C50.5121 43.522 50.142 43.8922 49.684 43.8922Z" fill="black"/>
<path d="M3.3125 48.8578H0.828125C0.370172 48.8578 0 48.4876 0 48.0297V14.0699C0 13.612 0.370172 13.2418 0.828125 13.2418H3.3125C3.77045 13.2418 4.14062 13.612 4.14062 14.0699V48.0297C4.14062 48.4876 3.77045 48.8578 3.3125 48.8578ZM1.65625 47.2015H2.48438V14.898H1.65625V47.2015Z" fill="black"/>
<path d="M52.1719 48.8577H49.6875C49.2295 48.8577 48.8594 48.4876 48.8594 48.0296V25.6752C48.8594 25.2173 49.2295 24.8471 49.6875 24.8471H52.1719C52.6298 24.8471 53 25.2173 53 25.6752V48.0296C53 48.4876 52.6298 48.8577 52.1719 48.8577ZM50.5156 47.2015H51.3438V26.5033H50.5156V47.2015Z" fill="black"/>
<path d="M12.4168 28.9878C11.9589 28.9878 11.5887 28.6176 11.5887 28.1596C11.5887 26.7874 10.4716 25.6703 9.09937 25.6703C8.64141 25.6703 8.27124 25.3001 8.27124 24.8422C8.27124 24.3842 8.64141 24.0141 9.09937 24.0141C11.385 24.0141 13.245 25.874 13.245 28.1596C13.245 28.6176 12.8748 28.9878 12.4168 28.9878Z" fill="black"/>
<path d="M14.8964 30.6406H3.31592C2.85797 30.6406 2.48779 30.2705 2.48779 29.8125C2.48779 29.3545 2.85797 28.9844 3.31592 28.9844H14.8964C15.3544 28.9844 15.7245 29.3545 15.7245 29.8125C15.7245 30.2705 15.3544 30.6406 14.8964 30.6406Z" fill="black"/>
<path d="M9.09952 25.6734H3.30762C2.84966 25.6734 2.47949 25.3033 2.47949 24.8453C2.47949 24.3874 2.84966 24.0172 3.30762 24.0172H9.09952C9.55748 24.0172 9.92765 24.3874 9.92765 24.8453C9.92765 25.3033 9.55748 25.6734 9.09952 25.6734Z" fill="black"/>
<path d="M12.417 30.6407C11.959 30.6407 11.5889 30.2705 11.5889 29.8125V28.1596C11.5889 27.7017 11.959 27.3315 12.417 27.3315C12.8749 27.3315 13.2451 27.7017 13.2451 28.1596V29.8125C13.2451 30.2705 12.8749 30.6407 12.417 30.6407Z" fill="black"/>
<path d="M14.8962 38.9235C14.4383 38.9235 14.0681 38.5534 14.0681 38.0954V28.9844C14.0681 28.5264 14.4383 28.1562 14.8962 28.1562C15.3542 28.1562 15.7244 28.5264 15.7244 28.9844V38.0954C15.7244 38.5534 15.3542 38.9235 14.8962 38.9235Z" fill="black"/>
<path d="M46.3684 38.9235C45.9105 38.9235 45.5403 38.5534 45.5403 38.0954V28.9844C45.5403 28.5264 45.9105 28.1562 46.3684 28.1562C46.8264 28.1562 47.1965 28.5264 47.1965 28.9844V38.0954C47.1965 38.5534 46.8264 38.9235 46.3684 38.9235Z" fill="black"/>
<path d="M46.3683 29.8125H14.8962C14.4383 29.8125 14.0681 29.4423 14.0681 28.9844C14.0681 28.5264 14.4383 28.1562 14.8962 28.1562H46.3683C46.8263 28.1562 47.1964 28.5264 47.1964 28.9844C47.1964 29.4423 46.8263 29.8125 46.3683 29.8125Z" fill="black"/>
<path d="M49.6842 33.958H46.3684C45.9105 33.958 45.5403 33.5879 45.5403 33.1299C45.5403 32.672 45.9105 32.3018 46.3684 32.3018H49.6842C50.1422 32.3018 50.5123 32.672 50.5123 33.1299C50.5123 33.5879 50.1422 33.958 49.6842 33.958Z" fill="black"/>
<path d="M46.3683 38.9234H14.8962C14.4383 38.9234 14.0681 38.5533 14.0681 38.0953C14.0681 37.6374 14.4383 37.2672 14.8962 37.2672H46.3683C46.8263 37.2672 47.1964 37.6374 47.1964 38.0953C47.1964 38.5533 46.8263 38.9234 46.3683 38.9234Z" fill="black"/>
<path d="M49.6875 30.6406H46.375C45.917 30.6406 45.5469 30.2705 45.5469 29.8125C45.5469 29.3545 45.917 28.9844 46.375 28.9844H49.6875C50.1455 28.9844 50.5156 29.3545 50.5156 29.8125C50.5156 30.2705 50.1455 30.6406 49.6875 30.6406Z" fill="black"/>
<path d="M43.8906 36.4375H17.3906C16.9327 36.4375 16.5625 36.0673 16.5625 35.6094C16.5625 35.1514 16.9327 34.7812 17.3906 34.7812H43.8906C44.3486 34.7812 44.7188 35.1514 44.7188 35.6094C44.7188 36.0673 44.3486 36.4375 43.8906 36.4375Z" fill="black"/>
<path d="M43.8906 36.4375C43.4327 36.4375 43.0625 36.0673 43.0625 35.6094V28.9844C43.0625 28.5264 43.4327 28.1562 43.8906 28.1562C44.3486 28.1562 44.7188 28.5264 44.7188 28.9844V35.6094C44.7188 36.0673 44.3486 36.4375 43.8906 36.4375Z" fill="black"/>
<path d="M17.3906 36.4375C16.9327 36.4375 16.5625 36.0673 16.5625 35.6094V28.9844C16.5625 28.5264 16.9327 28.1562 17.3906 28.1562C17.8486 28.1562 18.2188 28.5264 18.2188 28.9844V35.6094C18.2188 36.0673 17.8486 36.4375 17.3906 36.4375Z" fill="black"/>
<path d="M28.9868 22.3609C23.9642 22.3609 19.8774 18.2741 19.8774 13.2516C19.8774 8.22898 23.9642 4.14218 28.9868 4.14218C34.0094 4.14218 38.0962 8.22898 38.0962 13.2516C38.0962 18.2741 34.0094 22.3609 28.9868 22.3609ZM28.9868 5.79843C24.8768 5.79843 21.5337 9.14157 21.5337 13.2516C21.5337 17.3615 24.8768 20.7047 28.9868 20.7047C33.0968 20.7047 36.4399 17.3615 36.4399 13.2516C36.4399 9.14157 33.0968 5.79843 28.9868 5.79843Z" fill="black"/>
<path d="M28.9829 17.3906C28.525 17.3906 28.1548 17.0205 28.1548 16.5625V9.9375C28.1548 9.47955 28.525 9.10938 28.9829 9.10938C29.4409 9.10938 29.811 9.47955 29.811 9.9375V16.5625C29.811 17.0205 29.4409 17.3906 28.9829 17.3906Z" fill="black"/>
<path d="M32.2954 14.0781H25.6704C25.2125 14.0781 24.8423 13.708 24.8423 13.25C24.8423 12.792 25.2125 12.4219 25.6704 12.4219H32.2954C32.7534 12.4219 33.1235 12.792 33.1235 13.25C33.1235 13.708 32.7534 14.0781 32.2954 14.0781Z" fill="black"/>
</svg>
