<svg width="101" height="101" viewBox="0 0 101 101" fill="none" xmlns="http://www.w3.org/2000/svg">
<g clip-path="url(#clip0)">
<path d="M70.0484 8.14516V58.6452H60.2742V57.5697C60.2742 54.4262 58.0263 51.7218 54.9313 51.1515L42.3549 48.871V43.9839C46.639 43.9839 50.8588 42.9904 54.703 41.0678L55.3871 40.7258L57.635 42.9737C58.2864 43.6251 59.1662 43.9839 60.0785 43.9839C61.0235 43.9839 61.9032 43.5925 62.5221 42.9737C63.1409 42.3548 63.5323 41.4751 63.5323 40.5301V6.51613H68.4194C69.315 6.51613 70.0484 7.24951 70.0484 8.14516Z" fill="#FCD770"/>
<path d="M29.3227 43.9839V48.871L16.7462 51.1515C13.6512 51.7218 11.4033 54.4262 11.4033 57.5697V58.6452H1.62915V8.14516C1.62915 7.24951 2.36253 6.51613 3.25818 6.51613H8.14528V40.5301C8.14528 42.436 9.69318 43.9839 11.599 43.9839C12.5114 43.9839 13.3911 43.6251 14.0426 42.9737L16.2904 40.7258L16.9745 41.0678C20.8188 42.9904 25.0385 43.9839 29.3227 43.9839Z" fill="#FCD770"/>
<path d="M60.2743 58.6451V73.3064C60.2743 75.0985 58.8083 76.5645 57.0162 76.5645H43.1695C40.9216 76.5645 39.0969 74.7398 39.0969 72.4919C39.0969 71.368 39.5527 70.3419 40.2861 69.6085C41.0194 68.8751 42.0455 68.4193 43.1695 68.4193H52.1291V58.6451H19.5485V68.4193H28.5082C30.7561 68.4193 32.5808 70.244 32.5808 72.4919C32.5808 73.6159 32.125 74.642 31.3916 75.3753C30.6582 76.1087 29.6321 76.5645 28.5082 76.5645H14.6614C12.8693 76.5645 11.4033 75.0985 11.4033 73.3064V58.6451H1.62915V99.3709H70.0485V58.6451H60.2743Z" fill="#CCD1D9"/>
<path d="M47.242 68.4193V76.5645H43.1694C40.9215 76.5645 39.0968 74.7398 39.0968 72.4919C39.0968 71.368 39.5526 70.3419 40.286 69.6085C41.0193 68.8751 42.0454 68.4193 43.1694 68.4193H47.242Z" fill="#5CD6B3"/>
<path d="M60.2742 58.6452V73.3065C60.2742 75.0986 58.8082 76.5645 57.0161 76.5645H47.2419V68.4194H52.129V58.6452H19.5484V68.4194H28.508C30.7559 68.4194 32.5806 70.2441 32.5806 72.492C32.5806 73.6159 32.1248 74.642 31.3915 75.3754C30.6581 76.1088 29.632 76.5645 28.508 76.5645H14.6613C12.8692 76.5645 11.4032 75.0986 11.4032 73.3065V57.5698C11.4032 54.4262 13.6511 51.7218 16.7461 51.1515L29.3226 48.871C29.3226 48.871 30.9516 52.1291 35.8387 52.1291C40.7258 52.1291 42.3548 48.871 42.3548 48.871L54.9313 51.1515C58.0263 51.7218 60.2742 54.4262 60.2742 57.5698V58.6452Z" fill="#5CD6B3"/>
<path d="M29.3225 48.871V43.9839L29.371 43.886C31.2777 44.9941 33.4762 45.6129 35.8386 45.6129C38.2011 45.6129 40.3996 44.9774 42.3062 43.886L42.3548 43.9839V48.871C42.3548 48.871 40.7257 52.1291 35.8386 52.1291C30.9515 52.1291 29.3225 48.871 29.3225 48.871Z" fill="#F0D0B4"/>
<path d="M48.7731 34.2097C48.8383 33.6719 48.871 33.1342 48.871 32.5806V18.9295C48.871 17.3164 47.9586 15.8345 46.5085 15.117C45.9223 14.8076 45.4013 14.3845 45.01 13.8627L44.31 12.9185C43.1852 11.4191 41.736 10.2299 40.0902 9.41543C38.4612 8.585 36.6206 8.14513 34.7474 8.14513C28.1493 8.14513 22.8064 13.488 22.8064 20.0861V32.5806C22.8064 33.1342 22.839 33.6719 22.9043 34.2097C23.4253 38.3634 25.8855 41.899 29.3711 43.886L29.3226 43.9838C25.0384 43.9838 20.8187 42.9904 16.9744 41.0678L16.2903 40.7258L14.0424 42.9737C13.391 43.6251 12.5112 43.9838 11.5989 43.9838C9.69304 43.9838 8.14514 42.4359 8.14514 40.5301V5.08274C8.14514 4.13778 8.53649 3.25804 9.15533 2.6392C9.77417 2.02036 10.6539 1.62901 11.5989 1.62901C12.5112 1.62901 13.391 1.98774 14.0424 2.6392L16.2903 4.88707C20.5745 2.73703 25.2985 1.62901 30.0886 1.62901H41.5888C46.3789 1.62901 51.1029 2.73703 55.3871 4.88707L57.635 2.6392C58.2864 1.98774 59.1662 1.62901 60.0785 1.62901C61.9843 1.62901 63.5322 3.1769 63.5322 5.08274V40.5301C63.5322 41.4751 63.1409 42.3548 62.5221 42.9737C61.9032 43.5925 61.0235 43.9838 60.0785 43.9838C59.1662 43.9838 58.2864 43.6251 57.635 42.9737L55.3871 40.7258L54.703 41.0678C50.8587 42.9904 46.639 43.9838 42.3548 43.9838L42.3063 43.886C45.7919 41.899 48.2521 38.3634 48.7731 34.2097Z" fill="#FFEAA7"/>
<path d="M48.8709 18.9295V21.1774H22.8064V20.0861C22.8064 13.488 28.1493 8.14514 34.7473 8.14514C36.6206 8.14514 38.4612 8.58501 40.0902 9.41544C41.7359 10.23 43.1852 11.4191 44.3099 12.9185L45.0099 13.8627C45.4013 14.3845 45.9223 14.8076 46.5085 15.117C47.9586 15.8345 48.8709 17.3164 48.8709 18.9295Z" fill="#B27946"/>
<path d="M22.9043 34.2097H48.7731C48.2521 38.3634 45.7919 41.8991 42.3063 43.886C40.3997 44.9774 38.2011 45.6129 35.8387 45.6129C33.4763 45.6129 31.2777 44.9941 29.3711 43.886C25.8856 41.8991 23.4253 38.3634 22.9043 34.2097Z" fill="#E6E9ED"/>
<path d="M48.8709 21.1774V32.5806C48.8709 33.1342 48.8383 33.672 48.7731 34.2097H22.9042C22.839 33.672 22.8064 33.1342 22.8064 32.5806V21.1774H48.8709Z" fill="#F0D0B4"/>
<path d="M96.1128 1.62901H79.8225C78.0304 1.62901 76.5645 3.09498 76.5645 4.88707V29.2088C76.5645 29.8436 76.7434 30.4465 77.0695 30.9516C77.3137 31.3262 77.6232 31.6524 78.0145 31.9125L84.7096 37.4677V43.9838H91.2257V37.4677L97.9208 31.9125C98.3122 31.6524 98.6216 31.3262 98.8658 30.9516C99.1919 30.4465 99.3709 29.8436 99.3709 29.2088V4.88707C99.3709 3.09498 97.9049 1.62901 96.1128 1.62901Z" fill="#FF826E"/>
<path d="M40.726 26.0645H43.984V29.3226H40.726V26.0645Z" fill="black"/>
<path d="M27.6936 26.0645H30.9517V29.3226H27.6936V26.0645Z" fill="black"/>
<path d="M86.3389 53.7581H89.5969V57.0161H86.3389V53.7581Z" fill="black"/>
<path d="M86.3389 60.2742H89.5969V63.5323H86.3389V60.2742Z" fill="black"/>
<path d="M86.3387 79.8226C86.3387 80.7198 85.6085 81.4516 84.7097 81.4516H71.6774V8.14516C71.6774 6.34829 70.2162 4.8871 68.4193 4.8871H65.1414C65.0356 2.17629 62.8124 0 60.0769 0C58.7382 0 57.4282 0.54248 56.4816 1.48904L55.0498 2.9208C50.8388 1.00701 46.2095 0 41.5857 0H30.0902C25.4664 0 20.837 1.00701 16.626 2.9208L15.1942 1.48904C14.2493 0.54248 12.9392 0 11.6005 0C8.86502 0 6.6434 2.17629 6.53601 4.8871H3.25806C1.4612 4.8871 0 6.34829 0 8.14516V101H71.6774V84.7097H84.7097C87.4038 84.7097 89.5968 82.5167 89.5968 79.8226V66.7903H86.3387V79.8226ZM68.4193 81.4516H50.5C49.6012 81.4516 48.871 80.7198 48.871 79.8226V78.1936H57.0161C59.7102 78.1936 61.9032 76.0006 61.9032 73.3064V60.2742H68.4193V81.4516ZM48.871 70.0484H53.7581V57.0161H17.9194V70.0484H28.5081C29.8555 70.0484 30.9516 71.1445 30.9516 72.4919C30.9516 73.8394 29.8555 74.9355 28.5081 74.9355H14.6613C13.7625 74.9355 13.0323 74.2037 13.0323 73.3064V57.5666C13.0323 55.2034 14.7201 53.1814 17.0444 52.7582L28.5964 50.6583C29.6304 51.8928 31.8528 53.7581 35.8387 53.7581C39.8246 53.7581 42.047 51.8928 43.0811 50.6583L54.633 52.7582C56.9573 53.1814 58.6452 55.2049 58.6452 57.5666V73.3064C58.6452 74.2037 57.915 74.9355 57.0161 74.9355H48.871V70.0484ZM45.6129 74.9355H43.1693C41.8219 74.9355 40.7258 73.8394 40.7258 72.4919C40.7258 71.1445 41.8219 70.0484 43.1693 70.0484H45.6129V74.9355ZM47.2419 19.5484H24.4633C24.7481 14.1124 29.2462 9.77419 34.7522 9.77419C37.9824 9.77419 41.0694 11.3165 43.0047 13.9009L43.7055 14.8339C44.2527 15.5625 44.971 16.1615 45.7839 16.5687C46.6835 17.0181 47.2419 17.9209 47.2419 18.9264V19.5484ZM24.4355 22.8065H47.2419V32.5806H24.4355V22.8065ZM46.7615 35.8387C45.3552 40.5437 40.9931 43.9839 35.8387 43.9839C30.6843 43.9839 26.3222 40.5437 24.9159 35.8387H46.7615ZM30.9516 46.3869C32.4828 46.9309 34.123 47.2419 35.8387 47.2419C37.5544 47.2419 39.1946 46.9309 40.7258 46.3869V48.3921C40.2764 49.0078 38.8836 50.5 35.8387 50.5C32.7938 50.5 31.401 49.0078 30.9516 48.3921V46.3869ZM68.4193 57.0161H61.8547C61.6033 53.3214 58.9061 50.2248 55.2161 49.5534L43.9839 47.5124V45.5676C47.8154 45.3504 51.608 44.3728 55.0626 42.7064L56.4816 44.1255C57.4282 45.0704 58.7382 45.6129 60.0769 45.6129C62.8808 45.6129 65.1613 43.3324 65.1613 40.5285V8.14516H68.4193V57.0161ZM9.77419 5.08436C9.77419 4.07735 10.5935 3.25806 11.6005 3.25806C12.0809 3.25806 12.5518 3.45374 12.8923 3.79259L15.9698 6.8693L17.0205 6.34511C21.0565 4.32473 25.5777 3.25806 30.0918 3.25806H41.5872C46.1013 3.25806 50.6225 4.32473 54.6593 6.34511L55.71 6.8693L58.7867 3.79259C59.1256 3.45374 59.5965 3.25806 60.0769 3.25806C61.0839 3.25806 61.9032 4.07735 61.9032 5.08436V40.5285C61.9032 41.5355 61.0839 42.3548 60.0769 42.3548C59.5965 42.3548 59.1256 42.1592 58.7851 41.8203L55.7076 38.7436L53.9712 39.6114C51.8323 40.6821 49.532 41.4099 47.1815 41.8561C49.2536 39.3282 50.5 36.098 50.5 32.5806V18.9264C50.5 16.6793 49.2504 14.6597 47.2419 13.6543C46.8768 13.4721 46.5563 13.2049 46.3137 12.8787L45.6129 11.9457C43.0636 8.54606 39.0021 6.51613 34.7522 6.51613C27.2664 6.51613 21.1774 12.6051 21.1774 20.0909V32.5806C21.1774 36.098 22.4238 39.3282 24.4975 41.8577C22.1454 41.4115 19.8467 40.6836 17.7078 39.613L15.9714 38.7452L12.8939 41.8219C12.5518 42.1592 12.0809 42.3548 11.6005 42.3548C10.5935 42.3548 9.77419 41.5355 9.77419 40.5285V5.08436ZM3.25806 8.14516H6.51613V40.5285C6.51613 43.3324 8.79661 45.6129 11.6005 45.6129C12.9392 45.6129 14.2493 45.0704 15.1958 44.1239L16.6149 42.7048C20.0694 44.3712 23.862 45.3488 27.6935 45.566V47.5108L16.4613 49.5519C12.7714 50.2248 10.0741 53.3214 9.82271 57.0161H3.25806V8.14516ZM68.4193 97.7419H3.25806V60.2742H9.77419V73.3064C9.77419 76.0006 11.9672 78.1936 14.6613 78.1936H28.5081C31.6524 78.1936 34.2097 75.6363 34.2097 72.4919C34.2097 69.3476 31.6524 66.7903 28.5081 66.7903H21.1774V60.2742H50.5V66.7903H43.1693C40.025 66.7903 37.4677 69.3476 37.4677 72.4919C37.4677 75.6363 40.025 78.1936 43.1693 78.1936H45.6129V79.8226C45.6129 82.5167 47.8059 84.7097 50.5 84.7097H68.4193V97.7419Z" fill="black"/>
<path d="M96.113 0H79.8226C77.1285 0 74.9355 2.19299 74.9355 4.8871V29.2088C74.9355 30.8148 75.7175 32.3086 77.0355 33.2226L83.0807 38.2337V45.6129H86.3388V50.5H89.5968V45.6129H92.8549V38.2337L98.9002 33.2226C100.218 32.3086 101 30.8148 101 29.2088V4.8871C101 2.19299 98.8071 0 96.113 0ZM78.1936 4.8871C78.1936 3.98986 78.9238 3.25806 79.8226 3.25806H96.113C97.0118 3.25806 97.742 3.98986 97.742 4.8871V29.2088C97.742 29.2478 97.7309 29.2852 97.7277 29.3226H89.5968V32.5806H94.5786L90.6396 35.8387H85.296L81.365 32.5806H86.3388V29.3226H78.2079C78.2047 29.2836 78.1936 29.2478 78.1936 29.2088V4.8871ZM86.3388 42.3548V39.0968H89.5968V42.3548H86.3388Z" fill="black"/>
<path d="M86.3388 22.8065H89.5968V19.5484H92.8549V16.2903H89.5968V13.0323H86.3388V16.2903H83.0807V19.5484H86.3388V22.8065Z" fill="black"/>
</g>
<defs>
<clipPath id="clip0">
<rect width="101" height="101" fill="white"/>
</clipPath>
</defs>
</svg>
