<svg width="46" height="52" viewBox="0 0 46 52" fill="none" xmlns="http://www.w3.org/2000/svg">
<path d="M40.5 5.62499H30.05C29 2.67666 26.25 0.541656 23 0.541656C19.75 0.541656 17 2.67666 15.95 5.62499H5.5C2.75 5.62499 0.5 7.91249 0.5 10.7083V46.2917C0.5 49.0875 2.75 51.375 5.5 51.375H40.5C43.25 51.375 45.5 49.0875 45.5 46.2917V10.7083C45.5 7.91249 43.25 5.62499 40.5 5.62499ZM23 5.62499C24.375 5.62499 25.5 6.76874 25.5 8.16666C25.5 9.56457 24.375 10.7083 23 10.7083C21.625 10.7083 20.5 9.56457 20.5 8.16666C20.5 6.76874 21.625 5.62499 23 5.62499ZM23 15.7917C27.15 15.7917 30.5 19.1975 30.5 23.4167C30.5 27.6358 27.15 31.0417 23 31.0417C18.85 31.0417 15.5 27.6358 15.5 23.4167C15.5 19.1975 18.85 15.7917 23 15.7917ZM38 46.2917H8V42.7333C8 37.65 18 34.8542 23 34.8542C28 34.8542 38 37.65 38 42.7333V46.2917Z" fill="#89BBFF"/>
</svg>
